/* XPM */
static char *result[] = {
/* columns rows colors chars-per-pixel */
"64 64 7 1 ",
"  c gray13",
". c #BABA00",
"X c #D9D903",
"o c #EDED00",
"O c #FBFF00",
"+ c white",
"@ c None",
/* pixels */
"@@@@@@@@@@@@@@@@@@@@@@@@@@@@@@@@@@@@@@@@@@@@@@@@@@@@@@@@@@@@@@@@",
"@@@@@@@@@@@@@@@@@@@@@@@@@@@@@@@@@@@@@@@@@@@@@@@@@@@@@@@@@@@@@@@@",
"@@@@@@@@@@@@@@@@@@@@@@@@@@@@@@@@@@@@@@@@@@@@@@@@@@@@@@@@@@@@@@@@",
"@@@@@@@@@@@@@@@@@@@@@@@@@@@@@@@@@@@@@@@@@@@@@@@@@@@@@@@@@@@@@@@@",
"@@@@@@@@@@@@@@@@@@@@@@@@@@@@@@@@@@@@@@@@@@@@@@@@@@@@@@@@@@@@@@@@",
"@@@@@@@@@@@@@@@@@@@@@@@@@@@@@@@@@@@@@@@@@@@@@@@@@@@@@@@@@@@@@@@@",
"@@@@@@@@@@@@@@@@@@@@@@@@@@@@@@@@  @@@@@@@@@@@@@@@@@@@@@@@@@@@@@@",
"@@@@@@@@@@@@@@@@@@@@@@@@@@@@@@@@  @@@@@@@@@@@@@@@@@@@@@@@@@@@@@@",
"@@@@@@@@@@@@@@@@@@@@@@@@@@@@@@  XX  @@@@@@@@@@@@@@@@@@@@@@@@@@@@",
"@@@@@@@@@@@@@@@@@@@@@@@@@@@@@@  XX  @@@@@@@@@@@@@@@@@@@@@@@@@@@@",
"@@@@@@@@@@@@@@@@@@@@@@@@@@@@@@  OO  @@@@@@@@@@@@@@@@@@@@@@@@@@@@",
"@@@@@@@@@@@@@@@@@@@@@@@@@@@@@@  OO  @@@@@@@@@@@@@@@@@@@@@@@@@@@@",
"@@@@@@@@@@@@@@@@@@@@@@@@@@@@  XXOOOO  @@@@@@@@@@@@@@@@@@@@@@@@@@",
"@@@@@@@@@@@@@@@@@@@@@@@@@@@@  XXOOOO  @@@@@@@@@@@@@@@@@@@@@@@@@@",
"@@@@@@@@@@@@@@@@@@@@@@@@@@@@  OOOOOO  @@@@@@@@@@@@@@@@@@@@@@@@@@",
"@@@@@@@@@@@@@@@@@@@@@@@@@@@@  OOOOOO  @@@@@@@@@@@@@@@@@@@@@@@@@@",
"@@@@@@@@@@@@@@@@@@@@@@@@@@  XXOOOO++XX  @@@@@@@@@@@@@@@@@@@@@@@@",
"@@@@@@@@@@@@@@@@@@@@@@@@@@  XXOOOO++XX  @@@@@@@@@@@@@@@@@@@@@@@@",
"@@@@@@@@@@@@@@@@@@@@@@@@@@  OOOOOO++OO  @@@@@@@@@@@@@@@@@@@@@@@@",
"@@@@@@@@@@@@@@@@@@@@@@@@@@  OOOOOO++OO  @@@@@@@@@@@@@@@@@@@@@@@@",
"@@@@@@@@@@@@@@@@@@@@@@@@  ooOOOOOOOOOOXX  @@@@@@@@@@@@@@@@@@@@@@",
"@@@@@@@@@@@@@@@@@@@@@@@@  ooOOOOOOOOOOXX  @@@@@@@@@@@@@@@@@@@@@@",
"@@@@@@@@@@@@@@@@@@@@@@@@  ooOOOOOO++++OO  @@@@@@@@@@@@@@@@@@@@@@",
"@@@@@@@@@@@@@@@@@@@@@@@@  ooOOOOOO++++OO  @@@@@@@@@@@@@@@@@@@@@@",
"@@@@@@@@@@@@@@@@@@@@@@  XXooOOOOOOOO++OOXX  @@@@@@@@@@@@@@@@@@@@",
"@@@@@@@@@@@@@@@@@@@@@@  XXooOOOOOOOO++OOXX  @@@@@@@@@@@@@@@@@@@@",
"@@@@@@@@@@@@@@@@@@@@@@  XXooOOOOOOOOOOOOOO  @@@@@@@@@@@@@@@@@@@@",
"@@@@@@@@@@@@@@@@@@@@@@  XXooOOOOOOOOOOOOOO  @@@@@@@@@@@@@@@@@@@@",
"@@@@@@@@@@@@@@@@@@@@  ..XXooOOOOOOOOOO++OOXX  @@@@@@@@@@@@@@@@@@",
"@@@@@@@@@@@@@@@@@@@@  ..XXooOOOOOOOOOO++OOXX  @@@@@@@@@@@@@@@@@@",
"@@@@@@@@@@@@@@@@@@@@  ..XXooOOOOOOOOOO++OOXX  @@@@@@@@@@@@@@@@@@",
"@@@@@@@@@@@@@@@@@@@@  ..XXooOOOOOOOOOO++OOXX  @@@@@@@@@@@@@@@@@@",
"@@@@@@@@@@@@@@@@@@@@  ..XXooOOOOOOOOOO++OOXX  @@@@@@@@@@@@@@@@@@",
"@@@@@@@@@@@@@@@@@@@@  ..XXooOOOOOOOOOO++OOXX  @@@@@@@@@@@@@@@@@@",
"@@@@@@@@@@@@@@@@@@@@  ..XXooOOOOOOOOOO++OOXX  @@@@@@@@@@@@@@@@@@",
"@@@@@@@@@@@@@@@@@@@@  ..XXooOOOOOOOOOO++OOXX  @@@@@@@@@@@@@@@@@@",
"@@@@@@@@@@@@@@@@@@@@  ..XXooOOOOOOOOOO++OOXX  @@@@@@@@@@@@@@@@@@",
"@@@@@@@@@@@@@@@@@@@@  ..XXooOOOOOOOOOO++OOXX  @@@@@@@@@@@@@@@@@@",
"@@@@@@@@@@@@@@@@@@@@  ..XXooOOOOOOOOOO++OOXX  @@@@@@@@@@@@@@@@@@",
"@@@@@@@@@@@@@@@@@@@@  ..XXooOOOOOOOOOO++OOXX  @@@@@@@@@@@@@@@@@@",
"@@@@@@@@@@@@@@@@@@@@  ..XXooOOOOOOOOOO++OOXX  @@@@@@@@@@@@@@@@@@",
"@@@@@@@@@@@@@@@@@@@@  ..XXooOOOOOOOOOO++OOXX  @@@@@@@@@@@@@@@@@@",
"@@@@@@@@@@@@@@@@@@@@  ..XXooOOOOOOOOOO++OOXX  @@@@@@@@@@@@@@@@@@",
"@@@@@@@@@@@@@@@@@@@@  ..XXooOOOOOOOOOO++OOXX  @@@@@@@@@@@@@@@@@@",
"@@@@@@@@@@@@@@@@@@@@  ..XXooOOOOOOOOOO++OOXX  @@@@@@@@@@@@@@@@@@",
"@@@@@@@@@@@@@@@@@@@@  ..XXooOOOOOOOOOO++OOXX  @@@@@@@@@@@@@@@@@@",
"@@@@@@@@@@@@@@@@@@@@  ..XXooOOOOOOOOOO++OOXX  @@@@@@@@@@@@@@@@@@",
"@@@@@@@@@@@@@@@@@@@@  ..XXooOOOOOOOOOO++OOXX  @@@@@@@@@@@@@@@@@@",
"@@@@@@@@@@@@@@@@@@@@  ..XXooOOOOOOOOOO++OOXX  @@@@@@@@@@@@@@@@@@",
"@@@@@@@@@@@@@@@@@@@@  ..XXooOOOOOOOOOO++OOXX  @@@@@@@@@@@@@@@@@@",
"@@@@@@@@@@@@@@@@@@@@  ..XXooOOOOOOOOOO++OOXX  @@@@@@@@@@@@@@@@@@",
"@@@@@@@@@@@@@@@@@@@@  ..XXooOOOOOOOOOO++OOXX  @@@@@@@@@@@@@@@@@@",
"@@@@@@@@@@@@@@@@@@@@  ..XXooOOOOOOOOOO++OOXX  @@@@@@@@@@@@@@@@@@",
"@@@@@@@@@@@@@@@@@@@@  ..XXooOOOOOOOOOO++OOXX  @@@@@@@@@@@@@@@@@@",
"@@@@@@@@@@@@@@@@@@@@  ..XXooOOOOOOOOOOOOOOXX  @@@@@@@@@@@@@@@@@@",
"@@@@@@@@@@@@@@@@@@@@  ..XXooOOOOOOOOOOOOOOXX  @@@@@@@@@@@@@@@@@@",
"@@@@@@@@@@@@@@@@@@@@                          @@@@@@@@@@@@@@@@@@",
"@@@@@@@@@@@@@@@@@@@@                          @@@@@@@@@@@@@@@@@@",
"@@@@@@@@@@@@@@@@@@@@@@@@@@@@@@@@@@@@@@@@@@@@@@@@@@@@@@@@@@@@@@@@",
"@@@@@@@@@@@@@@@@@@@@@@@@@@@@@@@@@@@@@@@@@@@@@@@@@@@@@@@@@@@@@@@@",
"@@@@@@@@@@@@@@@@@@@@@@@@@@@@@@@@@@@@@@@@@@@@@@@@@@@@@@@@@@@@@@@@",
"@@@@@@@@@@@@@@@@@@@@@@@@@@@@@@@@@@@@@@@@@@@@@@@@@@@@@@@@@@@@@@@@",
"@@@@@@@@@@@@@@@@@@@@@@@@@@@@@@@@@@@@@@@@@@@@@@@@@@@@@@@@@@@@@@@@",
"@@@@@@@@@@@@@@@@@@@@@@@@@@@@@@@@@@@@@@@@@@@@@@@@@@@@@@@@@@@@@@@@"
};
