/* XPM */
static char *result[] = {
/* columns rows colors chars-per-pixel */
"64 64 4 1 ",
"  c black",
". c gray52",
"X c white",
"o c None",
/* pixels */
"oooooooooooo                                                oooo",
"oooooooooooo                                                oooo",
"oooooooooooo  XXXXXXXXXXXXXXXXXXXXXXXXXXXXXXXXXXXXXXXXXXXX  oooo",
"oooooooooooo  XXXXXXXXXXXXXXXXXXXXXXXXXXXXXXXXXXXXXXXXXXXX  oooo",
"oooooooooooo  XXXXXXXXXXXXXXXXXXXXXXXXXXXXXXXXXXXXXXXXXXXX  oooo",
"oooooooooooo  XXXXXXXXXXXXXXXXXXXXXXXXXXXXXXXXXXXXXXXXXXXX  oooo",
"oooooooooooo  XXXXXXXXXXXXXXXXXXXXXXXXXXXXXXXXXXXXXXXXXXXX  oooo",
"oooooooooooo  XXXXXXXXXXXXXXXXXXXXXXXXXXXXXXXXXXXXXXXXXXXX  oooo",
"oooooooooooo  XXXXXXXXXXXXXXXXXXXXXXXXXXXXXXXXXXXXXXXXXXXX  oooo",
"oooooooooooo  XXXXXXXXXXXXXXXXXXXXXXXXXXXXXXXXXXXXXXXXXXXX  oooo",
"oooooooooooo  XXXXXXXXXXXXXXXXXXXXXXXXXXXXXXXXXXXXXXXXXXXX  oooo",
"oooooooooooo  XXXXXXXXXXXXXXXXXXXXXXXXXXXXXXXXXXXXXXXXXXXX  oooo",
"oooooooooooo  XXXXXXXXXXXXXXXXXXXXXXXXXXXXXXXXXXXXXXXXXXXX  oooo",
"oooooooooooo  XXXXXXXXXXXXXXXXXXXXXXXXXXXXXXXXXXXXXXXXXXXX  oooo",
"oooooooooooo  XXXXXXXXXXXXXXXXXXXXXXXXXXXXXXXXXXXXXXXXXXXX  oooo",
"oooooooooooo  XXXXXXXXXXXXXXXXXXXXXXXXXXXXXXXXXXXXXXXXXXXX  oooo",
"oooooooooooo  XXXXXXXXXXXXXXXXXXXXXXXXXXXXXXXXXXXXXXXXXXXX  oooo",
"oooooooooooo  XXXXXXXXXXXXXXXXXXXXXXXXXXXXXXXXXXXXXXXXXXXX  oooo",
"oooooooooooo  XXXXXXXXXXXXXXXXXXXXXXXXXXXXXXXXXXXXXXXXXXXX  oooo",
"oooooooooooo  XXXXXXXXXXXXXXXXXXXXXXXXXXXXXXXXXXXXXXXXXXXX  oooo",
"oooooooooooo  XXXXXXXXXXXXXXXXXXXXXXXXXXXXXXXXXXXXXXXXXXXX  oooo",
"oooooooooooo  XXXXXXXXXXXXXXXXXXXXXXXXXXXXXXXXXXXXXXXXXXXX  oooo",
"oooooooooooo  XXXXXXXXXXXXXXXXXXXXXXXXXXXXXXXXXXXXXXXXXXXX  oooo",
"oooooooooooo  XXXXXXXXXXXXXXXXXXXXXXXXXXXXXXXXXXXXXXXXXXXX  oooo",
"oooooooooooo                                                oooo",
"oooooooooooo                                                oooo",
"oooooooooooo  ....  oooooooooooooooooooooooooooooooooooooooooooo",
"oooooooooooo  ....  oooooooooooooooooooooooooooooooooooooooooooo",
"oooooooooooo  ....  oooooooooooooooooooooooooooooooooooooooooooo",
"oooooooooooo  ....  oooooooooooooooooooooooooooooooooooooooooooo",
"oooooooooooo  ....  oooooooooooooooooooooooooooooooooooooooooooo",
"oooooooooooo  ....  oooooooooooooooooooooooooooooooooooooooooooo",
"oooooooooooo  ....  oooooooooooooooooooooooooooooooooooooooooooo",
"oooooooooooo  ....  oooooooooooooooooooooooooooooooooooooooooooo",
"oooooooooooo  ....  oooooooooooooooooooooooooooooooooooooooooooo",
"oooooooooooo  ....  oooooooooooooooooooooooooooooooooooooooooooo",
"oooooooooooo  ....  oooooooooooooooooooooooooooooooooooooooooooo",
"oooooooooooo  ....  oooooooooooooooooooooooooooooooooooooooooooo",
"oooooooooooo  ....  oooooooooooooooooooooooooooooooooooooooooooo",
"oooooooooooo  ....  oooooooooooooooooooooooooooooooooooooooooooo",
"oooooooooooo  ....  oooooooooooooooooooooooooooooooooooooooooooo",
"oooooooooooo  ....  oooooooooooooooooooooooooooooooooooooooooooo",
"oooooooooooo  ....  oooooooooooooooooooooooooooooooooooooooooooo",
"oooooooooooo  ....  oooooooooooooooooooooooooooooooooooooooooooo",
"oooooooooooo  ....  oooooooooooooooooooooooooooooooooooooooooooo",
"oooooooooooo  ....  oooooooooooooooooooooooooooooooooooooooooooo",
"oooooooooooo  ....  oooooooooooooooooooooooooooooooooooooooooooo",
"oooooooooooo  ....  oooooooooooooooooooooooooooooooooooooooooooo",
"oooooooooooo  ....  oooooooooooooooooooooooooooooooooooooooooooo",
"oooooooooooo  ....  oooooooooooooooooooooooooooooooooooooooooooo",
"oooooooooooo  ....  oooooooooooooooooooooooooooooooooooooooooooo",
"oooooooooooo  ....  oooooooooooooooooooooooooooooooooooooooooooo",
"oooooooooooo  ....  oooooooooooooooooooooooooooooooooooooooooooo",
"oooooooooooo  ....  oooooooooooooooooooooooooooooooooooooooooooo",
"oooooooooooo  ....  oooooooooooooooooooooooooooooooooooooooooooo",
"oooooooooooo  ....  oooooooooooooooooooooooooooooooooooooooooooo",
"oooooooooooo  ....  oooooooooooooooooooooooooooooooooooooooooooo",
"oooooooooooo  ....  oooooooooooooooooooooooooooooooooooooooooooo",
"oooooooooooo  ....  oooooooooooooooooooooooooooooooooooooooooooo",
"oooooooooooo  ....  oooooooooooooooooooooooooooooooooooooooooooo",
"oooooooooooo  ....  oooooooooooooooooooooooooooooooooooooooooooo",
"oooooooooooo  ....  oooooooooooooooooooooooooooooooooooooooooooo",
"oooooooooooo        oooooooooooooooooooooooooooooooooooooooooooo",
"oooooooooooo        oooooooooooooooooooooooooooooooooooooooooooo"
};
