/* XPM */
static char *e1e00f9097f34c07db2acc0e73b8d1abS81QZu0oZQWq77Hp[] = {
/* columns rows colors chars-per-pixel */
"64 64 4 1 ",
"  c None",
". c #C84C0C",
"X c #FC9838",
"o c #80D010",
/* pixels */
"                    oooooooooooooooo                            ",
"                    oooooooooooooooo                            ",
"                    oooooooooooooooo                            ",
"            oooooooooooooooooooooooo                            ",
"            oooooooooooooooooooo................                ",
"            oooooooooooooooooooo................                ",
"            oooooooooooooooooooo................                ",
"            oooooooooooooooooooo................                ",
"    ooooooooooooXXXXoooooooo........................            ",
"    ooooooooooooXXXXoooooooo........................            ",
"    ooooooooooooXXXXoooooooo........................            ",
"    ooooooooooooXXXXoooooooo........................            ",
"ooooooooooooooooXXXXXXXX........................                ",
"ooooooooooooooooXXXXXXXX........................                ",
"ooooooooooooooooXXXXXXXX........................                ",
"ooooooooooooooooXXXXXXXX........................                ",
"oooo    ooooooooXXXXXXXXXXXX....XXXXXXXXooooXXXX        ....    ",
"oooo    ooooooooXXXXXXXXXXXX....XXXXXXXXooooXXXX        ....    ",
"oooo    ooooooooXXXXXXXXXXXX....XXXXXXXXooooXXXX        ....    ",
"oooo    ooooooooXXXXXXXXXXXX....XXXXXXXXooooXXXX        ....    ",
"        oooo........XXXXXXXX....XXXXXXXX....XXXXXXXXXXXX....    ",
"        oooo........XXXXXXXX....XXXXXXXX....XXXXXXXXXXXX....    ",
"        oooo........XXXXXXXX....XXXXXXXX....XXXXXXXXXXXX....    ",
"        oooo........XXXXXXXX....XXXXXXXX....XXXXXXXXXXXX....    ",
"            ............XXXXXXXXXXXXXXXXXXXXXXXX        ....    ",
"            ............XXXXXXXXXXXXXXXXXXXXXXXX        ....    ",
"            ............XXXXXXXXXXXXXXXXXXXXXXXX        ....    ",
"            ............XXXXXXXXXXXXXXXXXXXXXXXX        ....    ",
"                ooooooooooooooooXXXXXXXXXXXXXXXX        ....    ",
"                ooooooooooooooooXXXXXXXXXXXXXXXX        ....    ",
"                ooooooooooooooooXXXXXXXXXXXXXXXX        ....    ",
"                ooooooooooooooooXXXXXXXXXXXXXXXX        ....    ",
"        ....oooooooooooooooooooooooooooo............XXXX....    ",
"        ....oooooooooooooooooooooooooooo............XXXX....    ",
"        ....oooooooooooooooooooooooooooo............XXXX....    ",
"        ....oooooooooooooooooooooooooooo............XXXX....    ",
"    ............ooooXXXXXXXXXXXXoooooooooooo........XXXX....    ",
"    ............ooooXXXXXXXXXXXXoooooooooooo........XXXX....    ",
"    ............ooooXXXXXXXXXXXXoooooooooooo........XXXX....    ",
"    ............ooooXXXXXXXXXXXXoooooooooooo........XXXX....    ",
"    ................XXXXXXXXXXXXoooooooooooo........    ....    ",
"    ................XXXXXXXXXXXXoooooooooooo........    ....    ",
"    ................XXXXXXXXXXXXoooooooooooo........    ....    ",
"    ................XXXXXXXXXXXXoooooooooooo........    ....    ",
"    ................XXXXXXXXoooooooooooo....            ....    ",
"    ................XXXXXXXXoooooooooooo....            ....    ",
"    ................XXXXXXXXoooooooooooo....            ....    ",
"    ................XXXXXXXXoooooooooooo....            ....    ",
"        oooo........oooooooo................            ....    ",
"        oooo........oooooooo................            ....    ",
"        oooo........oooooooo................            ....    ",
"        oooo........oooooooo................            ....    ",
"    oooooooooooooooooooooooooooooooooooooooo                    ",
"    oooooooooooooooooooooooooooooooooooooooo                    ",
"    oooooooooooooooooooooooooooooooooooooooo                    ",
"    oooooooooooooooooooooooooooooooooooooooo                    ",
"                ................                                ",
"                ................                                ",
"                ................                                ",
"                ................                                ",
"                ....................                            ",
"                ....................                            ",
"                ....................                            ",
"                ....................                            "
};
