/* XPM */
static char *_9ee21944b3a405eca856c3a55e6211eXWXecbqINN3Lfca0[] = {
/* columns rows colors chars-per-pixel */
"64 64 4 1 ",
"  c None",
". c #C84C0C",
"X c #FC9838",
"o c #80D010",
/* pixels */
"                                                                ",
"                                                                ",
"                                                                ",
"                                                                ",
"                            oooooooooooooooo                    ",
"                            oooooooooooooooo                    ",
"                            oooooooooooooooo                    ",
"                            oooooooooooooooo                    ",
"                ................oooooooooooooooooooo            ",
"                ................oooooooooooooooooooo            ",
"                ................oooooooooooooooooooo            ",
"                ................oooooooooooooooooooo            ",
"            ........................ooooooooXXXXoooooooooooo    ",
"            ........................ooooooooXXXXoooooooooooo    ",
"            ........................ooooooooXXXXoooooooooooo    ",
"            ........................ooooooooXXXXoooooooooooo    ",
"                ........................XXXXXXXXoooooooooooooooo",
"                ........................XXXXXXXXoooooooooooooooo",
"                ........................XXXXXXXXoooooooooooooooo",
"                ........................XXXXXXXXoooooooooooooooo",
"                XXXXooooXXXXXXXX....XXXXXXXXXXXXoooooooo    oooo",
"                XXXXooooXXXXXXXX....XXXXXXXXXXXXoooooooo    oooo",
"                XXXXooooXXXXXXXX....XXXXXXXXXXXXoooooooo    oooo",
"                XXXXooooXXXXXXXX....XXXXXXXXXXXXoooooooo    oooo",
"        XXXXXXXXXXXX....XXXXXXXX....XXXXXXXX........oooo        ",
"        XXXXXXXXXXXX....XXXXXXXX....XXXXXXXX........oooo        ",
"        XXXXXXXXXXXX....XXXXXXXX....XXXXXXXX........oooo        ",
"        XXXXXXXXXXXX....XXXXXXXX....XXXXXXXX........oooo        ",
"        ....    XXXXXXXXXXXXXXXXXXXXXXXX............            ",
"        ....    XXXXXXXXXXXXXXXXXXXXXXXX............            ",
"        ....    XXXXXXXXXXXXXXXXXXXXXXXX............            ",
"        ....    XXXXXXXXXXXXXXXXXXXXXXXX............            ",
"        ....    XXXXXXXXXXXXXXXXoooooooooooooooo                ",
"        ....    XXXXXXXXXXXXXXXXoooooooooooooooo                ",
"        ....    XXXXXXXXXXXXXXXXoooooooooooooooo                ",
"        ....    XXXXXXXXXXXXXXXXoooooooooooooooo                ",
"        ....XXXX........XXXXXXXXXXXXoooooooo........oooo        ",
"        ....XXXX........XXXXXXXXXXXXoooooooo........oooo        ",
"        ....XXXX........XXXXXXXXXXXXoooooooo........oooo        ",
"        ....XXXX........XXXXXXXXXXXXoooooooo........oooo        ",
"        ....XXXX....ooooXXXXXXXXXXXX....................        ",
"        ....XXXX....ooooXXXXXXXXXXXX....................        ",
"        ....XXXX....ooooXXXXXXXXXXXX....................        ",
"        ....XXXX....ooooXXXXXXXXXXXX....................        ",
"        ....    ....ooooooooXXXXXXXX....................oooo    ",
"        ....    ....ooooooooXXXXXXXX....................oooo    ",
"        ....    ....ooooooooXXXXXXXX....................oooo    ",
"        ....    ....ooooooooXXXXXXXX....................oooo    ",
"        ....        ....oooooooooooo................oooooooo    ",
"        ....        ....oooooooooooo................oooooooo    ",
"        ....        ....oooooooooooo................oooooooo    ",
"        ....        ....oooooooooooo................oooooooo    ",
"        ....    oooo................oooooooooooooooooooo........",
"        ....    oooo................oooooooooooooooooooo........",
"        ....    oooo................oooooooooooooooooooo........",
"        ........oooo................oooooooooooooooooooo........",
"            ........oooooooooooooooooooooooooooooooo............",
"            ........oooooooooooooooooooooooooooooooo............",
"            ........oooooooooooooooooooooooooooooooo............",
"            ........oooooooooooooooooooooooooooooooo............",
"                ............                    ............    ",
"                ............                    ............    ",
"                ............                    ............    ",
"                ............                    ............    "
};
