/* XPM */
static char *_acdd39966f14e9ca3bf0b451cc50c0fBvRAXVTuBJnvDfwu[] = {
/* columns rows colors chars-per-pixel */
"64 64 4 1 ",
"  c None",
". c #C84C0C",
"X c #FC9838",
"o c #80D010",
/* pixels */
"                    oooooooooooooooooooooooo                    ",
"                    oooooooooooooooooooooooo                    ",
"                    oooooooooooooooooooooooo                    ",
"                    oooooooooooooooooooooooo                    ",
"                oooooooooooooooooooooooooooooooo                ",
"                oooooooooooooooooooooooooooooooo                ",
"                oooooooooooooooooooooooooooooooo                ",
"                oooooooooooooooooooooooooooooooo                ",
"        XXXX    oooo........................oooo    XXXX        ",
"        XXXX    oooo........................oooo    XXXX        ",
"        XXXX    oooo........................oooo    XXXX        ",
"        XXXX    oooo........................oooo    XXXX        ",
"        XXXX    ................................    XXXX        ",
"        XXXX    ................................    XXXX        ",
"        XXXX    ................................    XXXX        ",
"        XXXX    ................................    XXXX        ",
"        XXXXXXXX....XXXXooooXXXXXXXXooooXXXX....XXXXXXXX        ",
"        XXXXXXXX....XXXXooooXXXXXXXXooooXXXX....XXXXXXXX        ",
"        XXXXXXXX....XXXXooooXXXXXXXXooooXXXX....XXXXXXXX        ",
"        XXXXXXXX....XXXXooooXXXXXXXXooooXXXX....XXXXXXXX        ",
"        XXXXXXXX....XXXX....XXXXXXXX....XXXX....XXXXXXXX        ",
"        XXXXXXXX....XXXX....XXXXXXXX....XXXX....XXXXXXXX        ",
"        XXXXXXXX....XXXX....XXXXXXXX....XXXX....XXXXXXXX        ",
"        XXXXXXXX....XXXX....XXXXXXXX....XXXX....XXXXXXXX        ",
"            XXXXXXXXXXXXXXXXXXXXXXXXXXXXXXXXXXXXXXXX....        ",
"            XXXXXXXXXXXXXXXXXXXXXXXXXXXXXXXXXXXXXXXX....        ",
"            XXXXXXXXXXXXXXXXXXXXXXXXXXXXXXXXXXXXXXXX....        ",
"            XXXXXXXXXXXXXXXXXXXXXXXXXXXXXXXXXXXXXXXX....        ",
"                ooooXXXXXXXX........XXXXXXXXoooo........        ",
"                ooooXXXXXXXX........XXXXXXXXoooo........        ",
"                ooooXXXXXXXX........XXXXXXXXoooo........        ",
"                ooooXXXXXXXX........XXXXXXXXoooo........        ",
"        ....................XXXXXXXXXXXXooooooooooooXXXX        ",
"        ....................XXXXXXXXXXXXooooooooooooXXXX        ",
"        ....................XXXXXXXXXXXXooooooooooooXXXX        ",
"        ....................XXXXXXXXXXXXooooooooooooXXXX        ",
"    ........XXXX................ooooooooooooooooooooXXXX        ",
"    ........XXXX................ooooooooooooooooooooXXXX        ",
"    ........XXXX................ooooooooooooooooooooXXXX        ",
"    ........XXXX................ooooooooooooooooooooXXXX        ",
"    ....XXXXXXXXXXXX........XXXX........oooooooo....            ",
"    ....XXXXXXXXXXXX........XXXX........oooooooo....            ",
"    ....XXXXXXXXXXXX........XXXX........oooooooo....            ",
"    ....XXXXXXXXXXXX........XXXX........oooooooo....            ",
"    ........XXXX............XXXXoooo............oooo            ",
"    ........XXXX............XXXXoooo............oooo            ",
"    ........XXXX............XXXXoooo............oooo            ",
"    ........XXXX............XXXXoooo............oooo            ",
"    ........XXXX............XXXX........oooooooooooo            ",
"    ........XXXX............XXXX........oooooooooooo            ",
"    ........XXXX............XXXX........oooooooooooo            ",
"    ........XXXX............XXXX........oooooooooooo            ",
"    ........................XXXXoooooooooooo....                ",
"    ........................XXXXoooooooooooo....                ",
"    ........................XXXXoooooooooooo....                ",
"    ........................XXXXoooooooooooo....                ",
"        XXXXXXXXXXXXXXXXXXXX        ............                ",
"        XXXXXXXXXXXXXXXXXXXX        ............                ",
"        XXXXXXXXXXXXXXXXXXXX        ............                ",
"        XXXXXXXXXXXXXXXXXXXX        ............                ",
"                                    ............                ",
"                                    ............                ",
"                                    ............                ",
"                                    ............                "
};
