/* XPM */
static char *_f71d11421ca4c3ed4565198e3d447c9dZyBRvUYBfHBJV8c[] = {
/* columns rows colors chars-per-pixel */
"64 64 4 1 ",
"  c None",
". c #C84C0C",
"X c #FC9838",
"o c #80D010",
/* pixels */
"                    oooooooooooooooooooooooo                    ",
"                    oooooooooooooooooooooooo                    ",
"                    oooooooooooooooooooooooo                    ",
"                    oooooooooooooooooooooooo                    ",
"                oooooooooooooooooooooooooooooooo                ",
"                oooooooooooooooooooooooooooooooo                ",
"                oooooooooooooooooooooooooooooooo                ",
"                oooooooooooooooooooooooooooooooo                ",
"        XXXX    oooooooooooooooooooooooooooooooo    XXXX        ",
"        XXXX    oooooooooooooooooooooooooooooooo    XXXX        ",
"        XXXX    oooooooooooooooooooooooooooooooo    XXXX        ",
"        XXXX    oooooooooooooooooooooooooooooooo    XXXX        ",
"        XXXXooooooooooooooooooooooooooooooooooooooooXXXX        ",
"        XXXXooooooooooooooooooooooooooooooooooooooooXXXX        ",
"        XXXXooooooooooooooooooooooooooooooooooooooooXXXX        ",
"        XXXXooooooooooooooooooooooooooooooooooooooooXXXX        ",
"        XXXX....oooooooooooooooooooooooooooooooo....XXXX        ",
"        XXXX....oooooooooooooooooooooooooooooooo....XXXX        ",
"        XXXX....oooooooooooooooooooooooooooooooo....XXXX        ",
"        XXXX....oooooooooooooooooooooooooooooooo....XXXX        ",
"        XXXXXXXX........oooooooooooooooo........XXXXXXXX        ",
"        XXXXXXXX........oooooooooooooooo........XXXXXXXX        ",
"        XXXXXXXX........oooooooooooooooo........XXXXXXXX        ",
"        XXXXXXXX........oooooooooooooooo........XXXXXXXX        ",
"            XXXX............oooooooo............XXXX            ",
"            XXXX............oooooooo............XXXX            ",
"            XXXX............oooooooo............XXXX            ",
"            XXXX............oooooooo............XXXX            ",
"            ....oooo........................oooo....            ",
"            ....oooo........................oooo....            ",
"            ....oooo........................oooo....            ",
"            ....oooo........................oooo....            ",
"            ........oooooooooooooooooooooooooooo........        ",
"            ........oooooooooooooooooooooooooooo........        ",
"            ........oooooooooooooooooooooooooooo........        ",
"            ........oooooooooooooooooooooooooooo........        ",
"        XXXX........oooooooooooooooooooooooooooo........        ",
"        XXXX........oooooooooooooooooooooooooooo........        ",
"        XXXX........oooooooooooooooooooooooooooo........        ",
"        XXXX........oooooooooooooooooooooooooooo........        ",
"        XXXX........oooooooooooooooooooooooo........            ",
"        XXXX........oooooooooooooooooooooooo........            ",
"        XXXX........oooooooooooooooooooooooo........            ",
"        XXXX........oooooooooooooooooooooooo........            ",
"        XXXXXXXXoooo........................oooooooo            ",
"        XXXXXXXXoooo........................oooooooo            ",
"        XXXXXXXXoooo........................oooooooo            ",
"        XXXXXXXXoooo........................oooooooo            ",
"            oooooooooooooooooooooooooooooooooooooooo            ",
"            oooooooooooooooooooooooooooooooooooooooo            ",
"            oooooooooooooooooooooooooooooooooooooooo            ",
"            oooooooooooooooooooooooooooooooooooooooo            ",
"                ....oooooooooooooooooooo............            ",
"                ....oooooooooooooooooooo............            ",
"                ....oooooooooooooooooooo............            ",
"                ....oooooooooooooooooooo............            ",
"                    ........        ................            ",
"                    ........        ................            ",
"                    ........        ................            ",
"                    ........        ................            ",
"                                        ........                ",
"                                        ........                ",
"                                        ........                ",
"                                        ........                "
};
