/* XPM */
static char *_4373fb0ff554f849c8bc1755479f0476V12WiAL05RxFPaQ[] = {
/* columns rows colors chars-per-pixel */
"64 64 4 1 ",
"  c None",
". c #C84C0C",
"X c #FC9838",
"o c #80D010",
/* pixels */
"                                                                ",
"                                                                ",
"                                                                ",
"                                                                ",
"                    oooooooooooooooo                            ",
"                    oooooooooooooooo                            ",
"                    oooooooooooooooo                            ",
"                    oooooooooooooooo                            ",
"            oooooooooooooooooooo................                ",
"            oooooooooooooooooooo................                ",
"            oooooooooooooooooooo................                ",
"            oooooooooooooooooooo................                ",
"    ooooooooooooXXXXoooooooo........................            ",
"    ooooooooooooXXXXoooooooo........................            ",
"    ooooooooooooXXXXoooooooo........................            ",
"    ooooooooooooXXXXoooooooo........................            ",
"ooooooooooooooooXXXXXXXX........................                ",
"ooooooooooooooooXXXXXXXX........................                ",
"ooooooooooooooooXXXXXXXX........................                ",
"ooooooooooooooooXXXXXXXX........................                ",
"oooo    ooooooooXXXXXXXXXXXX....XXXXXXXXooooXXXX                ",
"oooo    ooooooooXXXXXXXXXXXX....XXXXXXXXooooXXXX                ",
"oooo    ooooooooXXXXXXXXXXXX....XXXXXXXXooooXXXX                ",
"oooo    ooooooooXXXXXXXXXXXX....XXXXXXXXooooXXXX                ",
"        oooo........XXXXXXXX....XXXXXXXX....XXXXXXXXXXXX        ",
"        oooo........XXXXXXXX....XXXXXXXX....XXXXXXXXXXXX        ",
"        oooo........XXXXXXXX....XXXXXXXX....XXXXXXXXXXXX        ",
"        oooo........XXXXXXXX....XXXXXXXX....XXXXXXXXXXXX        ",
"            ............XXXXXXXXXXXXXXXXXXXXXXXX    ....        ",
"            ............XXXXXXXXXXXXXXXXXXXXXXXX    ....        ",
"            ............XXXXXXXXXXXXXXXXXXXXXXXX    ....        ",
"            ............XXXXXXXXXXXXXXXXXXXXXXXX    ....        ",
"                ooooooooooooooooXXXXXXXXXXXXXXXX    ....        ",
"                ooooooooooooooooXXXXXXXXXXXXXXXX    ....        ",
"                ooooooooooooooooXXXXXXXXXXXXXXXX    ....        ",
"                ooooooooooooooooXXXXXXXXXXXXXXXX    ....        ",
"        oooo........ooooooooXXXXXXXXXXXX........XXXX....        ",
"        oooo........ooooooooXXXXXXXXXXXX........XXXX....        ",
"        oooo........ooooooooXXXXXXXXXXXX........XXXX....        ",
"        oooo........ooooooooXXXXXXXXXXXX........XXXX....        ",
"        ....................XXXXXXXXXXXXoooo....XXXX....        ",
"        ....................XXXXXXXXXXXXoooo....XXXX....        ",
"        ....................XXXXXXXXXXXXoooo....XXXX....        ",
"        ....................XXXXXXXXXXXXoooo....XXXX....        ",
"    oooo....................XXXXXXXXoooooooo....    ....        ",
"    oooo....................XXXXXXXXoooooooo....    ....        ",
"    oooo....................XXXXXXXXoooooooo....    ....        ",
"    oooo....................XXXXXXXXoooooooo....    ....        ",
"    oooooooo................oooooooooooo....        ....        ",
"    oooooooo................oooooooooooo....        ....        ",
"    oooooooo................oooooooooooo....        ....        ",
"    oooooooo................oooooooooooo....        ....        ",
"........oooooooooooooooooooo................oooo    ....        ",
"........oooooooooooooooooooo................oooo    ....        ",
"........oooooooooooooooooooo................oooo    ....        ",
"........oooooooooooooooooooo................oooo........        ",
"............oooooooooooooooooooooooooooooooo........            ",
"............oooooooooooooooooooooooooooooooo........            ",
"............oooooooooooooooooooooooooooooooo........            ",
"............oooooooooooooooooooooooooooooooo........            ",
"    ............                    ............                ",
"    ............                    ............                ",
"    ............                    ............                ",
"    ............                    ............                "
};
