/* XPM */
static char *_8407329dc214917d5af22cd7adbe274QtVqeFBplNrmJOlR[] = {
/* columns rows colors chars-per-pixel */
"64 64 4 1 ",
"  c None",
". c #C84C0C",
"X c #FC9838",
"o c #80D010",
/* pixels */
"                            oooooooooooooooo                    ",
"                            oooooooooooooooo                    ",
"                            oooooooooooooooo                    ",
"                            oooooooooooooooooooooooo            ",
"                ................oooooooooooooooooooo            ",
"                ................oooooooooooooooooooo            ",
"                ................oooooooooooooooooooo            ",
"                ................oooooooooooooooooooo            ",
"            ........................ooooooooXXXXoooooooooooo    ",
"            ........................ooooooooXXXXoooooooooooo    ",
"            ........................ooooooooXXXXoooooooooooo    ",
"            ........................ooooooooXXXXoooooooooooo    ",
"                ........................XXXXXXXXoooooooooooooooo",
"                ........................XXXXXXXXoooooooooooooooo",
"                ........................XXXXXXXXoooooooooooooooo",
"                ........................XXXXXXXXoooooooooooooooo",
"    ....        XXXXooooXXXXXXXX....XXXXXXXXXXXXoooooooo    oooo",
"    ....        XXXXooooXXXXXXXX....XXXXXXXXXXXXoooooooo    oooo",
"    ....        XXXXooooXXXXXXXX....XXXXXXXXXXXXoooooooo    oooo",
"    ....        XXXXooooXXXXXXXX....XXXXXXXXXXXXoooooooo    oooo",
"    ....XXXXXXXXXXXX....XXXXXXXX....XXXXXXXX........oooo        ",
"    ....XXXXXXXXXXXX....XXXXXXXX....XXXXXXXX........oooo        ",
"    ....XXXXXXXXXXXX....XXXXXXXX....XXXXXXXX........oooo        ",
"    ....XXXXXXXXXXXX....XXXXXXXX....XXXXXXXX........oooo        ",
"    ....        XXXXXXXXXXXXXXXXXXXXXXXX............            ",
"    ....        XXXXXXXXXXXXXXXXXXXXXXXX............            ",
"    ....        XXXXXXXXXXXXXXXXXXXXXXXX............            ",
"    ....        XXXXXXXXXXXXXXXXXXXXXXXX............            ",
"    ....        XXXXXXXXXXXXXXXXoooooooooooooooo                ",
"    ....        XXXXXXXXXXXXXXXXoooooooooooooooo                ",
"    ....        XXXXXXXXXXXXXXXXoooooooooooooooo                ",
"    ....        XXXXXXXXXXXXXXXXoooooooooooooooo                ",
"    ....XXXX............oooooooooooooooooooooooooooo....        ",
"    ....XXXX............oooooooooooooooooooooooooooo....        ",
"    ....XXXX............oooooooooooooooooooooooooooo....        ",
"    ....XXXX............oooooooooooooooooooooooooooo....        ",
"    ....XXXX........ooooooooooooXXXXXXXXXXXXoooo............    ",
"    ....XXXX........ooooooooooooXXXXXXXXXXXXoooo............    ",
"    ....XXXX........ooooooooooooXXXXXXXXXXXXoooo............    ",
"    ....XXXX........ooooooooooooXXXXXXXXXXXXoooo............    ",
"    ....    ........ooooooooooooXXXXXXXXXXXX................    ",
"    ....    ........ooooooooooooXXXXXXXXXXXX................    ",
"    ....    ........ooooooooooooXXXXXXXXXXXX................    ",
"    ....    ........ooooooooooooXXXXXXXXXXXX................    ",
"    ....            ....ooooooooooooXXXXXXXX................    ",
"    ....            ....ooooooooooooXXXXXXXX................    ",
"    ....            ....ooooooooooooXXXXXXXX................    ",
"    ....            ....ooooooooooooXXXXXXXX................    ",
"    ....            ................oooooooo........oooo        ",
"    ....            ................oooooooo........oooo        ",
"    ....            ................oooooooo........oooo        ",
"    ....            ................oooooooo........oooo        ",
"                    oooooooooooooooooooooooooooooooooooooooo    ",
"                    oooooooooooooooooooooooooooooooooooooooo    ",
"                    oooooooooooooooooooooooooooooooooooooooo    ",
"                    oooooooooooooooooooooooooooooooooooooooo    ",
"                                ................                ",
"                                ................                ",
"                                ................                ",
"                                ................                ",
"                            ....................                ",
"                            ....................                ",
"                            ....................                ",
"                            ....................                "
};
