/* XPM */
static char *result[] = {
/* columns rows colors chars-per-pixel */
"64 64 7 1 ",
"  c black",
". c #4D312A",
"X c #0E4E11",
"o c #837810",
"O c #AFEB00",
"+ c white",
"@ c None",
/* pixels */
"@@@@@@@@@@@@@@@@@@@@@@@@@@@@@@@@@@@@@@@@@@@@@@@@@@@@@@@@@@@@@@@@",
"@@@@@@@@@@@@@@@@@@@@@@@@@@@@@@@@@@@@@@@@@@@@@@@@@@@@@@@@@@@@@@@@",
"@@@@@@@@@@@@@@@@@@@@@@@@@@@@@@@@@@@@@@@@@@@@@@@@@@@@@@@@@@@@@@@@",
"@@@@@@@@@@@@@@@@@@@@@@@@@@@@@@@@@@@@@@@@@@@@@@@@@@@@@@@@@@@@@@@@",
"@@@@@@@@@@@@@@@@@@@@@@@@@@@@@@@@@@@@@@@@@@@@@@@@@@@@@@@@@@@@@@@@",
"@@@@@@@@@@@@@@@@@@@@@@@@@@@@@@@@@@@@@@@@@@@@@@@@@@@@@@@@@@@@@@@@",
"@@@@@@@@@@            @@@@@@@@@@@@@@@@@@@@@@@@@@@@@@@@@@@@@@@@@@",
"@@@@@@@@@@            @@@@@@@@@@@@@@@@@@@@@@@@@@@@@@@@@@@@@@@@@@",
"@@@@@@@@  XXoo..XXXXXX  @@@@@@@@@@@@@@@@@@@@@@@@@@@@@@@@@@@@@@@@",
"@@@@@@@@  XXoo..XXXXXX  @@@@@@@@@@@@@@@@@@@@@@@@@@@@@@@@@@@@@@@@",
"@@@@@@  XXXXoooooooo..oo  @@++@@@@@@++++++++++++@@@@@@@@@@@@@@@@",
"@@@@@@  XXXXoooooooo..oo  @@++@@@@@@++++++++++++@@@@@@@@@@@@@@@@",
"@@@@  ....XXXXXXXX..XXooXX  @@@@@@@@                @@@@@@@@@@@@",
"@@@@  ....XXXXXXXX..XXooXX  @@@@@@@@                @@@@@@@@@@@@",
"@@@@                        @@@@@@  ....XXXXXXXX....  @@@@@@@@@@",
"@@@@                        @@@@@@  ....XXXXXXXX....  @@@@@@@@@@",
"@@  OOOOOOOOOOOOOOOOOOOOOOOO  @@  ......XXooooooXX....  @@@@@@@@",
"@@  OOOOOOOOOOOOOOOOOOOOOOOO  @@  ......XXooooooXX....  @@@@@@@@",
"  OOooOOOOOOOOOOOOOOOOOOooooOO  ..ooXXXXXXXXXXooXXXX..XX    @@@@",
"  OOooOOOOOOOOOOOOOOOOOOooooOO  ..ooXXXXXXXXXXooXXXX..XX    @@@@",
"  ooOOOOOOOOOOOOOOOOOOOOOOOOOO  ooooXXXX........XX..XXXX..  @@@@",
"  ooOOOOOOOOOOOOOOOOOOOOOOOOOO  ooooXXXX........XX..XXXX..  @@@@",
"  OO          OOOO          OO  oo............XXXX..XXXXoo  @@@@",
"  OO          OOOO          OO  oo............XXXX..XXXXoo  @@@@",
"  OO  ++++++  OOOO  ++++++  OO  ..ooXX......XXXX..XX....XX  @@@@",
"  OO  ++++++  OOOO  ++++++  OO  ..ooXX......XXXX..XX....XX  @@@@",
"  OO  ++  ++  OOOO  ++  ++  OO  XXoo......XXXXooXXXX..XXXX  @@@@",
"  OO  ++  ++  OOOO  ++  ++  OO  XXoo......XXXXooXXXX..XXXX  @@@@",
"  OO          OOOO          OO  ..XXXXXX..XXooooXX....XXXX  @@@@",
"  OO          OOOO          OO  ..XXXXXX..XXooooXX....XXXX  @@@@",
"  OOOOOOOOOOOOOOOOOOOOOOOOOOOO  ..XXXXXXooXXXXXX....XXXXXX  @@@@",
"  OOOOOOOOOOOOOOOOOOOOOOOOOOOO  ..XXXXXXooXXXXXX....XXXXXX  @@@@",
"  OOOOOOOOOOOOOOOOOOOOOOOOooOO  ..XX..XX........oooo..XX..  @@@@",
"  OOOOOOOOOOOOOOOOOOOOOOOOooOO  ..XX..XX........oooo..XX..  @@@@",
"  OOOO  OO  OOOOOOOOooooOOOOOO  ..XXXXXXXX..oooooo......oo    @@",
"  OOOO  OO  OOOOOOOOooooOOOOOO  ..XXXXXXXX..oooooo......oo    @@",
"  OOOOOOOOOOOOOOOOOOOOOOOOOOOO  ..XX....XX........XX....oo  XX  ",
"  OOOOOOOOOOOOOOOOOOOOOOOOOOOO  ..XX....XX........XX....oo  XX  ",
"                                ..XX..XX..XX....XX..XX....    @@",
"                                ..XX..XX..XX....XX..XX....    @@",
"@@@@@@@@@@@@oooooooooo  @@@@  XXXXooooXX........XXooXX..  @@@@@@",
"@@@@@@@@@@@@oooooooooo  @@@@  XXXXooooXX........XXooXX..  @@@@@@",
"@@  oooooooooooo        @@@@@@                          @@@@@@@@",
"@@  oooooooooooo        @@@@@@                          @@@@@@@@",
"@@                @@@@@@@@@@@@  OOOO  @@@@@@@@  OOOO  @@@@@@@@@@",
"@@                @@@@@@@@@@@@  OOOO  @@@@@@@@  OOOO  @@@@@@@@@@",
"@@@@@@@@@@@@@@@@@@@@@@@@@@@@@@  OOOO  @@@@@@@@  OOOO  @@@@@@@@@@",
"@@@@@@@@@@@@@@@@@@@@@@@@@@@@@@  OOOO  @@@@@@@@  OOOO  @@@@@@@@@@",
"@@@@@@@@@@@@@@@@@@@@@@@@@@@@@@  OOOO  @@@@@@@@  OOOO  @@@@@@@@@@",
"@@@@@@@@@@@@@@@@@@@@@@@@@@@@@@  OOOO  @@@@@@@@  OOOO  @@@@@@@@@@",
"@@@@@@@@@@@@@@@@@@@@@@@@@@@@@@        @@@@@@@@        @@@@@@@@@@",
"@@@@@@@@@@@@@@@@@@@@@@@@@@@@@@        @@@@@@@@        @@@@@@@@@@",
"@@@@@@@@@@@@@@@@@@@@@@@@@@@@@@@@@@@@@@@@@@@@@@@@@@@@@@@@@@@@@@@@",
"@@@@@@@@@@@@@@@@@@@@@@@@@@@@@@@@@@@@@@@@@@@@@@@@@@@@@@@@@@@@@@@@",
"@@@@@@@@@@@@@@@@@@@@@@@@@@@@@@@@@@@@@@@@@@@@@@@@@@@@@@@@@@@@@@@@",
"@@@@@@@@@@@@@@@@@@@@@@@@@@@@@@@@@@@@@@@@@@@@@@@@@@@@@@@@@@@@@@@@",
"@@@@@@@@@@@@@@@@@@@@@@@@@@@@@@@@@@@@@@@@@@@@@@@@@@@@@@@@@@@@@@@@",
"@@@@@@@@@@@@@@@@@@@@@@@@@@@@@@@@@@@@@@@@@@@@@@@@@@@@@@@@@@@@@@@@",
"@@@@@@@@@@@@@@@@@@@@@@@@@@@@@@@@@@@@@@@@@@@@@@@@@@@@@@@@@@@@@@@@",
"@@@@@@@@@@@@@@@@@@@@@@@@@@@@@@@@@@@@@@@@@@@@@@@@@@@@@@@@@@@@@@@@",
"@@@@@@@@@@@@@@@@@@@@@@@@@@@@@@@@@@@@@@@@@@@@@@@@@@@@@@@@@@@@@@@@",
"@@@@@@@@@@@@@@@@@@@@@@@@@@@@@@@@@@@@@@@@@@@@@@@@@@@@@@@@@@@@@@@@",
"@@@@@@@@@@@@@@@@@@@@@@@@@@@@@@@@@@@@@@@@@@@@@@@@@@@@@@@@@@@@@@@@",
"@@@@@@@@@@@@@@@@@@@@@@@@@@@@@@@@@@@@@@@@@@@@@@@@@@@@@@@@@@@@@@@@"
};
