/* XPM */
static char *result[] = {
/* columns rows colors chars-per-pixel */
"64 64 7 1 ",
"  c black",
". c #4E342E",
"X c #164F18",
"o c #827717",
"O c #AEEA00",
"+ c white",
"@ c None",
/* pixels */
"@@@@@@@@@@@@@@@@@@@@@@@@@@@@@@@@@@@@@@@@@@@@@@@@@@@@@@@@@@@@@@@@",
"@@@@@@@@@@@@@@@@@@@@@@@@@@@@@@@@@@@@@@@@@@@@@@@@@@@@@@@@@@@@@@@@",
"@@@@@@@@@@@@@@@@@@@@@@@@@@@@@@@@@@@@@@@@@@@@@@@@@@@@@@@@@@@@@@@@",
"@@@@@@@@@@@@@@@@@@@@@@@@@@@@@@@@@@@@@@@@@@@@@@@@@@@@@@@@@@@@@@@@",
"@@@@@@@@@@@@@@@@@@@@@@@@@@@@@@@@@@@@@@@@@@@@@@@@@@@@@@@@@@@@@@@@",
"@@@@@@@@@@@@@@@@@@@@@@@@@@@@@@@@@@@@@@@@@@@@@@@@@@@@@@@@@@@@@@@@",
"@@@@@@@@@@@@@@@@@@@@@@@@@@@@@@@@@@@@@@@@@@            @@@@@@@@@@",
"@@@@@@@@@@@@@@@@@@@@@@@@@@@@@@@@@@@@@@@@@@            @@@@@@@@@@",
"@@@@@@@@@@@@@@@@@@@@@@@@@@@@@@@@@@@@@@@@  XXXXXX..ooXX  @@@@@@@@",
"@@@@@@@@@@@@@@@@@@@@@@@@@@@@@@@@@@@@@@@@  XXXXXX..ooXX  @@@@@@@@",
"@@@@@@@@@@@@@@@@++++++++++++@@@@@@++@@  oo..ooooooooXXXX  @@@@@@",
"@@@@@@@@@@@@@@@@++++++++++++@@@@@@++@@  oo..ooooooooXXXX  @@@@@@",
"@@@@@@@@@@@@                @@@@@@@@  XXooXX..XXXXXXXX....  @@@@",
"@@@@@@@@@@@@                @@@@@@@@  XXooXX..XXXXXXXX....  @@@@",
"@@@@@@@@@@  ....XXXXXXXX....  @@@@@@                        @@@@",
"@@@@@@@@@@  ....XXXXXXXX....  @@@@@@                        @@@@",
"@@@@@@@@  ....XXooooooXX......  @@  OOOOOOOOOOOOOOOOOOOOOOOO  @@",
"@@@@@@@@  ....XXooooooXX......  @@  OOOOOOOOOOOOOOOOOOOOOOOO  @@",
"@@@@    XX..XXXXooXXXXXXXXXXoo..  OOooooOOOOOOOOOOOOOOOOOOooOO  ",
"@@@@    XX..XXXXooXXXXXXXXXXoo..  OOooooOOOOOOOOOOOOOOOOOOooOO  ",
"@@@@  ..XXXX..XX........XXXXoooo  OOOOOOOOOOOOOOOOOOOOOOOOOOoo  ",
"@@@@  ..XXXX..XX........XXXXoooo  OOOOOOOOOOOOOOOOOOOOOOOOOOoo  ",
"@@@@  ooXXXX..XXXX............oo  OO          OOOO          OO  ",
"@@@@  ooXXXX..XXXX............oo  OO          OOOO          OO  ",
"@@@@  XX....XX..XXXX......XXoo..  OO  ++++++  OOOO  ++++++  OO  ",
"@@@@  XX....XX..XXXX......XXoo..  OO  ++++++  OOOO  ++++++  OO  ",
"@@@@  XXXX..XXXXooXXXX......ooXX  OO  ++  ++  OOOO  ++  ++  OO  ",
"@@@@  XXXX..XXXXooXXXX......ooXX  OO  ++  ++  OOOO  ++  ++  OO  ",
"@@@@  XXXX....XXooooXX..XXXXXX..  OO          OOOO          OO  ",
"@@@@  XXXX....XXooooXX..XXXXXX..  OO          OOOO          OO  ",
"@@@@  XXXXXX....XXXXXXooXXXXXX..  OOOOOOOOOOOOOOOOOOOOOOOOOOOO  ",
"@@@@  XXXXXX....XXXXXXooXXXXXX..  OOOOOOOOOOOOOOOOOOOOOOOOOOOO  ",
"@@@@  ..XX..oooo........XX..XX..  OOooOOOOOOOOOOOOOOOOOOOOOOOO  ",
"@@@@  ..XX..oooo........XX..XX..  OOooOOOOOOOOOOOOOOOOOOOOOOOO  ",
"@@    oo......oooooo..XXXXXXXX..  OOOOOOooooOOOOOOOO  OO  OOOO  ",
"@@    oo......oooooo..XXXXXXXX..  OOOOOOooooOOOOOOOO  OO  OOOO  ",
"  XX  oo....XX........XX....XX..  OOOOOOOOOOOOOOOOOOOOOOOOOOOO  ",
"  XX  oo....XX........XX....XX..  OOOOOOOOOOOOOOOOOOOOOOOOOOOO  ",
"@@    ....XX..XX....XX..XX..XX..                                ",
"@@    ....XX..XX....XX..XX..XX..                                ",
"@@@@@@  ..XXooXX........XXooooXXXX  @@@@  oooooooooo@@@@@@@@@@@@",
"@@@@@@  ..XXooXX........XXooooXXXX  @@@@  oooooooooo@@@@@@@@@@@@",
"@@@@@@@@                          @@@@@@        oooooooooooo  @@",
"@@@@@@@@                          @@@@@@        oooooooooooo  @@",
"@@@@@@@@@@  OOOO  @@@@@@@@  OOOO  @@@@@@@@@@@@                @@",
"@@@@@@@@@@  OOOO  @@@@@@@@  OOOO  @@@@@@@@@@@@                @@",
"@@@@@@@@@@  OOOO  @@@@@@@@  OOOO  @@@@@@@@@@@@@@@@@@@@@@@@@@@@@@",
"@@@@@@@@@@  OOOO  @@@@@@@@  OOOO  @@@@@@@@@@@@@@@@@@@@@@@@@@@@@@",
"@@@@@@@@@@  OOOO  @@@@@@@@  OOOO  @@@@@@@@@@@@@@@@@@@@@@@@@@@@@@",
"@@@@@@@@@@  OOOO  @@@@@@@@  OOOO  @@@@@@@@@@@@@@@@@@@@@@@@@@@@@@",
"@@@@@@@@@@        @@@@@@@@        @@@@@@@@@@@@@@@@@@@@@@@@@@@@@@",
"@@@@@@@@@@        @@@@@@@@        @@@@@@@@@@@@@@@@@@@@@@@@@@@@@@",
"@@@@@@@@@@@@@@@@@@@@@@@@@@@@@@@@@@@@@@@@@@@@@@@@@@@@@@@@@@@@@@@@",
"@@@@@@@@@@@@@@@@@@@@@@@@@@@@@@@@@@@@@@@@@@@@@@@@@@@@@@@@@@@@@@@@",
"@@@@@@@@@@@@@@@@@@@@@@@@@@@@@@@@@@@@@@@@@@@@@@@@@@@@@@@@@@@@@@@@",
"@@@@@@@@@@@@@@@@@@@@@@@@@@@@@@@@@@@@@@@@@@@@@@@@@@@@@@@@@@@@@@@@",
"@@@@@@@@@@@@@@@@@@@@@@@@@@@@@@@@@@@@@@@@@@@@@@@@@@@@@@@@@@@@@@@@",
"@@@@@@@@@@@@@@@@@@@@@@@@@@@@@@@@@@@@@@@@@@@@@@@@@@@@@@@@@@@@@@@@",
"@@@@@@@@@@@@@@@@@@@@@@@@@@@@@@@@@@@@@@@@@@@@@@@@@@@@@@@@@@@@@@@@",
"@@@@@@@@@@@@@@@@@@@@@@@@@@@@@@@@@@@@@@@@@@@@@@@@@@@@@@@@@@@@@@@@",
"@@@@@@@@@@@@@@@@@@@@@@@@@@@@@@@@@@@@@@@@@@@@@@@@@@@@@@@@@@@@@@@@",
"@@@@@@@@@@@@@@@@@@@@@@@@@@@@@@@@@@@@@@@@@@@@@@@@@@@@@@@@@@@@@@@@",
"@@@@@@@@@@@@@@@@@@@@@@@@@@@@@@@@@@@@@@@@@@@@@@@@@@@@@@@@@@@@@@@@",
"@@@@@@@@@@@@@@@@@@@@@@@@@@@@@@@@@@@@@@@@@@@@@@@@@@@@@@@@@@@@@@@@"
};
