/* XPM */
static char *_001a54559b84207c48410c33911774d6lw2maZ48WJHYFEu[] = {
/* columns rows colors chars-per-pixel */
"64 64 3 1 ",
"  c None",
". c #E79C21",
"X c white",
/* pixels */
"                            XXXX....                            ",
"                            XXXX....                            ",
"                            XXXX....                            ",
"                            XXXX....                            ",
"                        XXXXXXXX........                        ",
"                        XXXXXXXX........                        ",
"                        XXXXXXXX........                        ",
"                        XXXXXXXX........                        ",
"                    XXXXXXXXXXXX............                    ",
"                    XXXXXXXXXXXX............                    ",
"                    XXXXXXXXXXXX............                    ",
"                    XXXXXXXXXXXX............                    ",
"                XXXX....XXXX....    ....    ....                ",
"                XXXX....XXXX....    ....    ....                ",
"                XXXX....XXXX....    ....    ....                ",
"                XXXX....XXXX....    ....    ....                ",
"                XXXXXXXX............    ........                ",
"                XXXXXXXX............    ........                ",
"                XXXXXXXX............    ........                ",
"                XXXXXXXX............    ........                ",
"                XXXXXXXX............    ........                ",
"                XXXXXXXX............    ........                ",
"                XXXXXXXX............    ........                ",
"                XXXXXXXX............    ........                ",
"                XXXXXXXX............    ........                ",
"                XXXXXXXX............    ........                ",
"                XXXXXXXX............    ........                ",
"                XXXXXXXX............    ........                ",
"                XXXXXXXX............    ........                ",
"                XXXXXXXX............    ........                ",
"                XXXXXXXX............    ........                ",
"                XXXXXXXX............    ........                ",
"                XXXXXXXX............    ........                ",
"                XXXXXXXX............    ........                ",
"                XXXXXXXX............    ........                ",
"                XXXXXXXX............    ........                ",
"                XXXXXXXX............    ........                ",
"                XXXXXXXX............    ........                ",
"                XXXXXXXX............    ........                ",
"                XXXXXXXX............    ........                ",
"                XXXXXXXX............    ........                ",
"                XXXXXXXX............    ........                ",
"                XXXXXXXX............    ........                ",
"                XXXXXXXX............    ........                ",
"                XXXX....XXXX........    ........                ",
"                XXXX....XXXX........    ........                ",
"                XXXX....XXXX........    ........                ",
"                XXXX....XXXX........    ........                ",
"                ............XXXX    ....    ....                ",
"                ............XXXX    ....    ....                ",
"                ............XXXX    ....    ....                ",
"                ............XXXX    ....    ....                ",
"                    ........................                    ",
"                    ........................                    ",
"                    ........................                    ",
"                    ........................                    ",
"                        ................                        ",
"                        ................                        ",
"                        ................                        ",
"                        ................                        ",
"                            ........                            ",
"                            ........                            ",
"                            ........                            ",
"                            ........                            "
};
