/* XPM */
static char *result[] = {
/* columns rows colors chars-per-pixel */
"64 64 3 1 ",
"  c #E79C21",
". c white",
"X c None",
/* pixels */
"XXXXXXXXXXXXXXXXXXXXXXXXXXXXXXXXXXXXXXXXXXXXXXXXXXXXXXXXXXXXXXXX",
"XXXXXXXXXXXXXXXXXXXXXXXXXXXX....    XXXXXXXXXXXXXXXXXXXXXXXXXXXX",
"XXXXXXXXXXXXXXXXXXXXXXXXXXXX....    XXXXXXXXXXXXXXXXXXXXXXXXXXXX",
"XXXXXXXXXXXXXXXXXXXXXXXXXXXX....    XXXXXXXXXXXXXXXXXXXXXXXXXXXX",
"XXXXXXXXXXXXXXXXXXXXXXXX........        XXXXXXXXXXXXXXXXXXXXXXXX",
"XXXXXXXXXXXXXXXXXXXXXXXX........        XXXXXXXXXXXXXXXXXXXXXXXX",
"XXXXXXXXXXXXXXXXXXXXXXXX........        XXXXXXXXXXXXXXXXXXXXXXXX",
"XXXXXXXXXXXXXXXXXXXXXXXX........        XXXXXXXXXXXXXXXXXXXXXXXX",
"XXXXXXXXXXXXXXXXXXXX............            XXXXXXXXXXXXXXXXXXXX",
"XXXXXXXXXXXXXXXXXXXX............            XXXXXXXXXXXXXXXXXXXX",
"XXXXXXXXXXXXXXXXXXXX............            XXXXXXXXXXXXXXXXXXXX",
"XXXXXXXXXXXXXXXXXXXX............            XXXXXXXXXXXXXXXXXXXX",
"XXXXXXXXXXXXXXXXX...    ....    XXXX    XXXX   XXXXXXXXXXXXXXXXX",
"XXXXXXXXXXXXXXXXX...    ....    XXXX    XXXX   XXXXXXXXXXXXXXXXX",
"XXXXXXXXXXXXXXXXX...    ....    XXXX    XXXX   XXXXXXXXXXXXXXXXX",
"XXXXXXXXXXXXXXXXX...    ....    XXXX    XXXX   XXXXXXXXXXXXXXXXX",
"XXXXXXXXXXXXXXXXX.......            XXXX       XXXXXXXXXXXXXXXXX",
"XXXXXXXXXXXXXXXXX.......            XXXX       XXXXXXXXXXXXXXXXX",
"XXXXXXXXXXXXXXXXX.......            XXXX       XXXXXXXXXXXXXXXXX",
"XXXXXXXXXXXXXXXXX.......            XXXX       XXXXXXXXXXXXXXXXX",
"XXXXXXXXXXXXXXXXX.......            XXXX       XXXXXXXXXXXXXXXXX",
"XXXXXXXXXXXXXXXXX.......            XXXX       XXXXXXXXXXXXXXXXX",
"XXXXXXXXXXXXXXXXX.......            XXXX       XXXXXXXXXXXXXXXXX",
"XXXXXXXXXXXXXXXXX.......            XXXX       XXXXXXXXXXXXXXXXX",
"XXXXXXXXXXXXXXXXX.......            XXXX       XXXXXXXXXXXXXXXXX",
"XXXXXXXXXXXXXXXXX.......            XXXX       XXXXXXXXXXXXXXXXX",
"XXXXXXXXXXXXXXXXX.......            XXXX       XXXXXXXXXXXXXXXXX",
"XXXXXXXXXXXXXXXXX.......            XXXX       XXXXXXXXXXXXXXXXX",
"XXXXXXXXXXXXXXXXX.......            XXXX       XXXXXXXXXXXXXXXXX",
"XXXXXXXXXXXXXXXXX.......            XXXX       XXXXXXXXXXXXXXXXX",
"XXXXXXXXXXXXXXXXX.......            XXXX       XXXXXXXXXXXXXXXXX",
"XXXXXXXXXXXXXXXXX.......            XXXX       XXXXXXXXXXXXXXXXX",
"XXXXXXXXXXXXXXXXX.......            XXXX       XXXXXXXXXXXXXXXXX",
"XXXXXXXXXXXXXXXXX.......            XXXX       XXXXXXXXXXXXXXXXX",
"XXXXXXXXXXXXXXXXX.......            XXXX       XXXXXXXXXXXXXXXXX",
"XXXXXXXXXXXXXXXXX.......            XXXX       XXXXXXXXXXXXXXXXX",
"XXXXXXXXXXXXXXXXX.......            XXXX       XXXXXXXXXXXXXXXXX",
"XXXXXXXXXXXXXXXXX.......            XXXX       XXXXXXXXXXXXXXXXX",
"XXXXXXXXXXXXXXXXX.......            XXXX       XXXXXXXXXXXXXXXXX",
"XXXXXXXXXXXXXXXXX.......            XXXX       XXXXXXXXXXXXXXXXX",
"XXXXXXXXXXXXXXXXX.......            XXXX       XXXXXXXXXXXXXXXXX",
"XXXXXXXXXXXXXXXXX.......            XXXX       XXXXXXXXXXXXXXXXX",
"XXXXXXXXXXXXXXXXX.......            XXXX       XXXXXXXXXXXXXXXXX",
"XXXXXXXXXXXXXXXXX.......            XXXX       XXXXXXXXXXXXXXXXX",
"XXXXXXXXXXXXXXXXX...    ....        XXXX       XXXXXXXXXXXXXXXXX",
"XXXXXXXXXXXXXXXXX...    ....        XXXX       XXXXXXXXXXXXXXXXX",
"XXXXXXXXXXXXXXXXX...    ....        XXXX       XXXXXXXXXXXXXXXXX",
"XXXXXXXXXXXXXXXXX...    ....        XXXX       XXXXXXXXXXXXXXXXX",
"XXXXXXXXXXXXXXXXX           ....XXXX    XXXX   XXXXXXXXXXXXXXXXX",
"XXXXXXXXXXXXXXXXX           ....XXXX    XXXX   XXXXXXXXXXXXXXXXX",
"XXXXXXXXXXXXXXXXX           ....XXXX    XXXX   XXXXXXXXXXXXXXXXX",
"XXXXXXXXXXXXXXXXX           ....XXXX    XXXX   XXXXXXXXXXXXXXXXX",
"XXXXXXXXXXXXXXXXXXXX                        XXXXXXXXXXXXXXXXXXXX",
"XXXXXXXXXXXXXXXXXXXX                        XXXXXXXXXXXXXXXXXXXX",
"XXXXXXXXXXXXXXXXXXXX                        XXXXXXXXXXXXXXXXXXXX",
"XXXXXXXXXXXXXXXXXXXX                        XXXXXXXXXXXXXXXXXXXX",
"XXXXXXXXXXXXXXXXXXXXXXXX                XXXXXXXXXXXXXXXXXXXXXXXX",
"XXXXXXXXXXXXXXXXXXXXXXXX                XXXXXXXXXXXXXXXXXXXXXXXX",
"XXXXXXXXXXXXXXXXXXXXXXXX                XXXXXXXXXXXXXXXXXXXXXXXX",
"XXXXXXXXXXXXXXXXXXXXXXXX                XXXXXXXXXXXXXXXXXXXXXXXX",
"XXXXXXXXXXXXXXXXXXXXXXXXXXXX        XXXXXXXXXXXXXXXXXXXXXXXXXXXX",
"XXXXXXXXXXXXXXXXXXXXXXXXXXXX        XXXXXXXXXXXXXXXXXXXXXXXXXXXX",
"XXXXXXXXXXXXXXXXXXXXXXXXXXXX        XXXXXXXXXXXXXXXXXXXXXXXXXXXX",
"XXXXXXXXXXXXXXXXXXXXXXXXXXXXXXXXXXXXXXXXXXXXXXXXXXXXXXXXXXXXXXXX"
};
