/* XPM */
static char *result[] = {
/* columns rows colors chars-per-pixel */
"64 64 15 1 ",
"  c black",
". c #090300",
"X c #110700",
"o c #170900",
"O c #271100",
"+ c #2C1200",
"@ c #2D1300",
"# c #3B1900",
"$ c #3D1900",
"% c #502100",
"& c #512300",
"* c #532400",
"= c #753200",
"- c #7D3600",
"; c None",
/* pixels */
";;;;;;;;;;;;;;    ;;;;;;;;;;;;    ;;;;;;;;;;;;    ;;;;;;;;;;;;;;",
";;;;;;;;;;;;;;    ;;;;;;;;;;;;    ;;;;;;;;;;;;    ;;;;;;;;;;;;;;",
";;;;;;;;;;;;  ----  ;;;;;;;;  ==--  ;;;;;;;;  ----  ;;;;;;;;;;;;",
";;;;;;;;;;;;  ----  ;;;;;;;;  ==--  ;;;;;;;;  ----  ;;;;;;;;;;;;",
";;;;;;;;;;  --------  ;;;;..--------  ;;;;  ----==--  ;;;;;;;;;;",
";;;;;;;;;;  --------  ;;;;..--------  ;;;;  ----==--  ;;;;;;;;;;",
";;;;;;;;;;OO----==--  ;;;;oo--**----..;;;;  ==------  ;;;;;;;;;;",
";;;;;;;;;;OO----==--  ;;;;oo--**----..;;;;  ==------  ;;;;;;;;;;",
";;;;;;##    --------    XX@@--------XX      ==--**--  ..;;;;;;;;",
";;;;;;##    --------    XX@@--------XX      ==--**--  ..;;;;;;;;",
";;  OO        **--==    OO&&--$$--**  ..    **------  $$    ;;;;",
";;  OO        **--==    OO&&--$$--**  ..    **------  $$    ;;;;",
"    $$$$$$  $$--**--  $$$$  $$$$$$--  $$$$  ----$$--  $$$$$$    ",
"    $$$$$$  $$--**--  $$$$  $$$$$$--  $$$$  ----$$--  $$$$$$    ",
"  $$$$$$$$  $$$$**--  $$$$  $$$$$$$$  $$$$  --$$$$$$  **$$$$$$  ",
"  $$$$$$$$  $$$$**--  $$$$  $$$$$$$$  $$$$  --$$$$$$  **$$$$$$  ",
"    $$$$$$  $$------  $$$$  $$$$$$--  $$$$  $$$$$$$$  **$$$$    ",
"    $$$$$$  $$------  $$$$  $$$$$$--  $$$$  $$$$$$$$  **$$$$    ",
";;    $$$$  ====----        --$$--==  $$$$  --$$$$$$  $$$$    ;;",
";;    $$$$  ====----        --$$--==  $$$$  --$$$$$$  $$$$    ;;",
";;;;;;      --------        **%%----        ----$$--      ;;;;;;",
";;;;;;      --------        **%%----        ----$$--      ;;;;;;",
";;;;;;;;..  ******==        --==--**        ****%%--    ;;;;;;;;",
";;;;;;;;..  ******==        --==--**        ****%%--    ;;;;;;;;",
";;;;;;;;OO  --------        --------        ----==--  OO;;;;;;;;",
";;;;;;;;OO  --------        --------        ----==--  OO;;;;;;;;",
";;;;;;OO    $$--**--..      --------        --------      ;;;;;;",
";;;;;;OO    $$--**--..      --------        --------      ;;;;;;",
";;    $$$$  $$$$--**        --------        --------  $$$$    ;;",
";;    $$$$  $$$$--**        --------        --------  $$$$    ;;",
"  $$$$$$$$  $$$$$$**  $$$$  --------  $$$$  --------  $$$$$$$$  ",
"  $$$$$$$$  $$$$$$**  $$$$  --------  $$$$  --------  $$$$$$$$  ",
"  $$$$==$$  $$$$----  $$$$  --------  $$$$  --------  $$$$$$$$  ",
"  $$$$==$$  $$$$----  $$$$  --------  $$$$  --------  $$$$$$$$  ",
";;  OO$$$$  $$--==--  $$$$  --------  $$$$  --------  $$$$    ;;",
";;  OO$$$$  $$--==--  $$$$  --------  $$$$  --------  $$$$    ;;",
";;;;    OO  %%==----        ------==        --------      ;;;;;;",
";;;;    OO  %%==----        ------==        --------      ;;;;;;",
";;;;;;;;    ==--****        ----====  OO    ==------    ;;;;;;;;",
";;;;;;;;    ==--****        ----====  OO    ==------    ;;;;;;;;",
";;;;;;;;..  --**----..      ------**        --------    ;;;;;;;;",
";;;;;;;;..  --**----..      ------**        --------    ;;;;;;;;",
";;;;        --------        ----**--  $$  OO--==----  $$    ;;;;",
";;;;        --------        ----**--  $$  OO--==----  $$    ;;;;",
";;  $$$$**  --$$--**  $$$$  --------$$$$$$  **------  $$$$$$  ;;",
";;  $$$$**  --$$--**  $$$$  --------$$$$$$  **------  $$$$$$  ;;",
"    $$$$$$  $$$$$$--OO$$$$  ------$$$$$$$$$$**------  $$$$$$$$  ",
"    $$$$$$  $$$$$$--OO$$$$  ------$$$$$$$$$$**------  $$$$$$$$  ",
"  $$$$$$$$$$$$$$$$$$OO$$$$  ----==--$$$$$$  --------  $$$$$$$$  ",
"  $$$$$$$$$$$$$$$$$$OO$$$$  ----==--$$$$$$  --------  $$$$$$$$  ",
";;      ..  $$$$$$--        --**----      ..--------          ;;",
";;      ..  $$$$$$--        --**----      ..--------          ;;",
";;;;  OO    --$$--==        ------**OO++    --------        ;;;;",
";;;;  OO    --$$--==        ------**OO++    --------        ;;;;",
";;;;;;;;  OO**%%----        --------  ..  OO**------    ;;;;;;;;",
";;;;;;;;  OO**%%----        --------  ..  OO**------    ;;;;;;;;",
";;;;;;;;;;  --==--**OO;;;;  --------  ;;;;  --------  ;;;;;;;;;;",
";;;;;;;;;;  --==--**OO;;;;  --------  ;;;;  --------  ;;;;;;;;;;",
";;;;;;;;;;  --------  ;;;;  --------  ;;;;  --------  ;;;;;;;;;;",
";;;;;;;;;;  --------  ;;;;  --------  ;;;;  --------  ;;;;;;;;;;",
";;;;;;;;;;;;  ----  ;;;;;;;;  ----  ;;;;;;;;  ----  ;;;;;;;;;;;;",
";;;;;;;;;;;;  ----  ;;;;;;;;  ----  ;;;;;;;;  ----  ;;;;;;;;;;;;",
";;;;;;;;;;;;;;    ;;;;;;;;;;;;    ;;;;;;;;;;;;    ;;;;;;;;;;;;;;",
";;;;;;;;;;;;;;    ;;;;;;;;;;;;    ;;;;;;;;;;;;    ;;;;;;;;;;;;;;"
};
