/* XPM */
static char *result[] = {
/* columns rows colors chars-per-pixel */
"64 64 3 1 ",
"  c black",
". c #00A800",
"X c #FCD8A8",
/* pixels */
"............    XXXX        XXXX........        XXXX    ........",
"............    XXXX        XXXX........        XXXX    ........",
"............    XXXX        XXXX........        XXXX    ........",
"............    XXXX        XXXX........        XXXX    ........",
"................        XXXX....................            XXXX",
"................        XXXX....................            XXXX",
"................        XXXX....................            XXXX",
"................        XXXX....................            XXXX",
"................        XXXX....................        ....    ",
"................        XXXX....................        ....    ",
"................        XXXX....................        ....    ",
"................        XXXX....................        ....    ",
"XXXX............        XXXX........................    ....    ",
"XXXX............        XXXX........................    ....    ",
"XXXX............        XXXX........................    ....    ",
"XXXX............        XXXX........................    ....    ",
"XXXX............    XXXX............................    ....    ",
"XXXX............    XXXX............................    ....    ",
"XXXX............    XXXX............................    ....    ",
"XXXX............    XXXX............................    ....    ",
"................    XXXX....................................    ",
"................    XXXX....................................    ",
"................    XXXX....................................    ",
"................    XXXX....................................    ",
"................    XXXX....................XXXXXXXX        XXXX",
"................    XXXX....................XXXXXXXX        XXXX",
"................    XXXX....................XXXXXXXX        XXXX",
"................    XXXX....................XXXXXXXX        XXXX",
"................    XXXX................XXXX............    XXXX",
"................    XXXX................XXXX............    XXXX",
"................    XXXX................XXXX............    XXXX",
"................    XXXX................XXXX............    XXXX",
"............        XXXX................XXXX................    ",
"............        XXXX................XXXX................    ",
"............        XXXX................XXXX................    ",
"............        XXXX................XXXX................    ",
"............        XXXX................XXXX................    ",
"............        XXXX................XXXX................    ",
"............        XXXX................XXXX................    ",
"............        XXXX................XXXX................    ",
"XXXX....            XXXX    ........    XXXX............        ",
"XXXX....            XXXX    ........    XXXX............        ",
"XXXX....            XXXX    ........    XXXX............        ",
"XXXX....            XXXX    ........    XXXX............        ",
"XXXX....    XXXXXXXXXXXX        ....    XXXX............    XXXX",
"XXXX....    XXXXXXXXXXXX        ....    XXXX............    XXXX",
"XXXX....    XXXXXXXXXXXX        ....    XXXX............    XXXX",
"XXXX....    XXXXXXXXXXXX        ....    XXXX............    XXXX",
"....    XXXX....................        XXXX............    XXXX",
"....    XXXX....................        XXXX............    XXXX",
"....    XXXX....................        XXXX............    XXXX",
"....    XXXX....................        XXXX............    XXXX",
"....    XXXX................            XXXX............    XXXX",
"....    XXXX................            XXXX............    XXXX",
"....    XXXX................            XXXX............    XXXX",
"....    XXXX................            XXXX............    XXXX",
"....XXXX........................            ........            ",
"....XXXX........................            ........            ",
"....XXXX........................            ........            ",
"....XXXX........................            ........            ",
"    XXXX....XXXX........XXXX    XXXX        XXXXXXXX        XXXX",
"    XXXX....XXXX........XXXX    XXXX        XXXXXXXX        XXXX",
"    XXXX....XXXX........XXXX    XXXX        XXXXXXXX        XXXX",
"    XXXX....XXXX........XXXX    XXXX        XXXXXXXX        XXXX"
};
